# Blender 5.0.0
# www.blender.org
mtllib black_fin.mtl
o black_fin
v -0.005173 0.003525 -0.063538
v 0.036068 0.000772 0.008572
v 0.036068 0.000772 -0.063538
v -0.006950 0.000000 -0.063538
v -0.023932 0.003525 -0.005912
v 0.036068 -0.000000 0.008572
v -0.025708 0.000000 -0.005912
v 0.036068 0.000000 -0.063538
v 0.002080 0.000000 -0.014539
v 0.001972 0.000698 0.010489
v 0.002080 -0.000000 0.010489
v 0.001972 0.000698 -0.014539
v 0.001797 0.001026 0.010489
v 0.001797 0.001026 -0.014539
v 0.001562 0.001313 0.010489
v 0.001562 0.001313 -0.014539
v 0.001275 0.001549 0.010489
v 0.001275 0.001549 -0.014539
v 0.000947 0.001724 0.010489
v 0.000947 0.001724 -0.014539
v 0.000592 0.001831 0.010489
v 0.000592 0.001831 -0.014539
v 0.000222 0.001868 0.010489
v 0.000222 0.001868 -0.014539
v -0.000147 0.001831 0.010489
v -0.000147 0.001831 -0.014539
v -0.000503 0.001724 0.010489
v -0.000503 0.001724 -0.014539
v -0.000830 0.001549 0.010489
v -0.000830 0.001549 -0.014539
v -0.001117 0.001313 0.010489
v -0.001117 0.001313 -0.014539
v -0.001353 0.001026 0.010489
v -0.001353 0.001026 -0.014539
v -0.001528 0.000698 0.010489
v -0.001636 0.000000 -0.014539
v -0.001636 -0.000000 0.010489
v -0.005173 -0.003525 -0.063538
v 0.036068 -0.000772 0.008572
v -0.023932 -0.003525 -0.005912
v 0.001972 -0.000698 0.010489
v 0.001797 -0.001026 0.010489
v 0.001972 -0.000698 -0.014539
v 0.001562 -0.001313 0.010489
v 0.001797 -0.001026 -0.014539
v 0.001275 -0.001549 0.010489
v 0.001562 -0.001313 -0.014539
v 0.000947 -0.001724 0.010489
v 0.001275 -0.001549 -0.014539
v 0.000592 -0.001831 0.010489
v 0.000947 -0.001724 -0.014539
v 0.000222 -0.001868 0.010489
v 0.000592 -0.001831 -0.014539
v -0.000147 -0.001831 0.010489
v 0.000222 -0.001868 -0.014539
v -0.000503 -0.001724 0.010489
v -0.000147 -0.001831 -0.014539
v -0.000830 -0.001549 0.010489
v -0.000503 -0.001724 -0.014539
v -0.001117 -0.001313 0.010489
v -0.000830 -0.001549 -0.014539
v -0.001353 -0.001026 0.010489
v -0.001117 -0.001313 -0.014539
v -0.001528 -0.000698 0.010489
v -0.001353 -0.001026 -0.014539
v -0.001528 -0.000698 -0.014539
v -0.001528 0.000698 -0.014539
v 0.036068 -0.000772 -0.063538
vn 0.0666 0.9978 -0.0000
vn -0.8575 0.4323 -0.2791
vn -0.2268 0.1143 0.9672
vn -0.0000 -0.0000 -1.0000
vn 1.0000 -0.0000 -0.0000
vn 0.9883 0.1525 -0.0000
vn 0.8819 0.4715 -0.0000
vn 0.7730 0.6344 -0.0000
vn 0.7730 0.6345 -0.0000
vn 0.6344 0.7730 -0.0000
vn 0.6345 0.7730 -0.0000
vn 0.4714 0.8819 -0.0000
vn 0.2903 0.9569 -0.0000
vn 0.2902 0.9570 -0.0000
vn 0.0979 0.9952 -0.0000
vn 0.0981 0.9952 -0.0000
vn -0.0979 0.9952 -0.0000
vn -0.0981 0.9952 -0.0000
vn -0.2903 0.9569 -0.0000
vn -0.2902 0.9570 -0.0000
vn -0.4714 0.8819 -0.0000
vn -0.6344 0.7730 -0.0000
vn -0.6345 0.7730 -0.0000
vn -0.7731 0.6343 -0.0000
vn -0.7730 0.6344 -0.0000
vn -0.8819 0.4715 -0.0000
vn -0.9883 0.1526 -0.0000
vn -0.0000 1.0000 -0.0000
vn 0.0425 -0.9990 0.0138
vn -0.8575 -0.4323 -0.2791
vn -0.2268 -0.1143 0.9672
vn 0.9883 -0.1525 -0.0000
vn 0.8819 -0.4715 -0.0000
vn 0.7730 -0.6345 -0.0000
vn 0.6345 -0.7730 -0.0000
vn 0.4714 -0.8819 -0.0000
vn 0.2902 -0.9570 -0.0000
vn 0.0981 -0.9952 -0.0000
vn -0.0981 -0.9952 -0.0000
vn -0.2902 -0.9570 -0.0000
vn -0.4714 -0.8819 -0.0000
vn -0.6345 -0.7730 -0.0000
vn -0.7730 -0.6344 -0.0000
vn -0.8819 -0.4715 -0.0000
vn -0.9883 -0.1526 -0.0000
vn 0.0425 0.9990 0.0138
vn -0.2347 -0.0000 0.9721
vn 0.2904 0.9569 -0.0000
vn -0.2904 0.9569 -0.0000
vn 0.0666 -0.9978 -0.0000
vn 0.7730 -0.6344 -0.0000
vn 0.6344 -0.7730 -0.0000
vn 0.2903 -0.9569 -0.0000
vn 0.0979 -0.9952 -0.0000
vn -0.0979 -0.9952 -0.0000
vn -0.2904 -0.9569 -0.0000
vn -0.6344 -0.7730 -0.0000
vn -0.7731 -0.6343 -0.0000
s 1
usemtl Metall_schwarz.002
f 1//1 2//1 3//1
f 4//2 5//2 1//2
f 6//3 5//3 7//3
f 8//4 1//4 3//4
f 8//5 2//5 6//5
f 9//6 10//6 11//6
f 12//7 13//7 10//7
f 14//8 15//9 13//9
f 16//10 17//11 15//11
f 18//12 19//12 17//12
f 20//13 21//14 19//14
f 22//15 23//16 21//16
f 24//17 25//18 23//18
f 26//19 27//20 25//20
f 28//21 29//21 27//21
f 30//22 31//23 29//23
f 32//24 33//25 31//25
f 34//26 35//26 33//26
f 35//27 36//27 37//27
f 4//28 6//28 8//28
f 38//29 39//29 40//29
f 4//30 40//30 7//30
f 40//31 6//31 7//31
f 8//4 38//4 4//4
f 39//5 8//5 6//5
f 41//32 9//32 11//32
f 42//33 43//33 41//33
f 44//34 45//34 42//34
f 46//35 47//35 44//35
f 48//36 49//36 46//36
f 50//37 51//37 48//37
f 52//38 53//38 50//38
f 54//39 55//39 52//39
f 56//40 57//40 54//40
f 58//41 59//41 56//41
f 60//42 61//42 58//42
f 62//43 63//43 60//43
f 64//44 65//44 62//44
f 64//45 36//45 66//45
f 1//46 5//46 2//46
f 4//2 7//2 5//2
f 6//47 2//47 5//47
f 8//4 4//4 1//4
f 8//5 3//5 2//5
f 9//6 12//6 10//6
f 12//7 14//7 13//7
f 14//8 16//8 15//9
f 16//10 18//10 17//11
f 18//12 20//12 19//12
f 20//13 22//48 21//14
f 22//15 24//15 23//16
f 24//17 26//17 25//18
f 26//19 28//49 27//20
f 28//21 30//21 29//21
f 30//22 32//22 31//23
f 32//24 34//24 33//25
f 34//26 67//26 35//26
f 35//27 67//27 36//27
f 4//28 7//28 6//28
f 38//50 68//50 39//50
f 4//30 38//30 40//30
f 40//47 39//47 6//47
f 8//4 68//4 38//4
f 39//5 68//5 8//5
f 41//32 43//32 9//32
f 42//33 45//33 43//33
f 44//51 47//51 45//51
f 46//52 49//52 47//52
f 48//36 51//36 49//36
f 50//53 53//53 51//53
f 52//54 55//54 53//54
f 54//55 57//55 55//55
f 56//56 59//56 57//56
f 58//41 61//41 59//41
f 60//57 63//57 61//57
f 62//58 65//58 63//58
f 64//44 66//44 65//44
f 64//45 37//45 36//45
